<?xml version="1.0" encoding="UTF-8"?>
<svg id="Layer_2" data-name="Layer 2" xmlns="http://www.w3.org/2000/svg" xmlns:xlink="http://www.w3.org/1999/xlink" viewBox="0 0 204.02 51.62">
  <defs>
    <style>
      .cls-1 {
        fill: url(#linear-gradient);
      }

      .cls-2 {
        fill: #b5b5b5;
      }
    </style>
    <linearGradient id="linear-gradient" x1="75.79" y1="25.81" x2="94.37" y2="25.81" gradientUnits="userSpaceOnUse">
      <stop offset="0" stop-color="#866efc"/>
      <stop offset="1" stop-color="#01d5bf"/>
    </linearGradient>
  </defs>
  <g id="Layer_1-2" data-name="Layer 1">
    <g>
      <path class="cls-2" d="m29.68,44.24c-3.71,0-7.08-2.04-8.8-5.32L7.8,13.97c-.19-.36-.55-.58-.96-.58-.6,0-1.08.48-1.08,1.08v26.88c0,1.59-1.29,2.88-2.88,2.88s-2.88-1.29-2.88-2.88V14.48c0-3.77,3.07-6.85,6.85-6.85,2.55,0,4.88,1.4,6.06,3.67l13.08,24.94c.72,1.38,2.14,2.23,3.69,2.23,2.3,0,4.17-1.87,4.17-4.17V10.51c0-1.59,1.29-2.88,2.88-2.88s2.88,1.29,2.88,2.88v23.79c0,5.48-4.46,9.94-9.94,9.94Z"/>
      <path class="cls-2" d="m49.45,44.24c-1.59,0-2.88-1.29-2.88-2.88V10.51c0-1.59,1.29-2.88,2.88-2.88s2.88,1.29,2.88,2.88v30.84c0,1.59-1.29,2.88-2.88,2.88Z"/>
      <path class="cls-2" d="m193.42,23.05h-18.43c-2.66,0-4.83-2.17-4.83-4.83s2.17-4.83,4.83-4.83h13.48c1.81,0,3.52.96,4.46,2.5.83,1.36,2.6,1.79,3.96.96,1.36-.83,1.79-2.6.96-3.96-1.98-3.25-5.58-5.26-9.38-5.26h-13.48c-5.84,0-10.59,4.75-10.59,10.59s4.75,10.59,10.59,10.59h18.43c2.66,0,4.83,2.17,4.83,4.83s-2.17,4.83-4.83,4.83h-19.22c-1.81,0-3.52-.96-4.46-2.5-.83-1.36-2.6-1.79-3.96-.96-1.36.83-1.79,2.6-.96,3.96,1.98,3.25,5.58,5.26,9.38,5.26h19.22c5.84,0,10.59-4.75,10.59-10.59s-4.75-10.59-10.59-10.59Z"/>
      <path class="cls-2" d="m137.67,44.24c-6.86-.07-11.86-1.66-14.92-4.71l-.21-.21c-3.06-3.06-4.64-8.06-4.71-14.86v-13.95c0-1.59,1.29-2.88,2.88-2.88s2.88,1.29,2.88,2.88v13.92c.05,5.14,1.1,8.88,3.02,10.81l.21.21c1.93,1.93,5.67,2.97,10.84,3.03,5.17-.05,8.94-1.12,10.85-3.1l.07-.07c1.97-1.91,3.04-5.68,3.1-10.91v-13.89c0-1.59,1.29-2.88,2.88-2.88s2.88,1.29,2.88,2.88v13.92c-.07,6.91-1.69,11.94-4.82,14.99-3.05,3.13-8.08,4.75-14.96,4.82Z"/>
      <g>
        <path class="cls-1" d="m89.02,24.4c-.12,0-.24.01-.35.02h0c-4.37.28-5.53-1.62-5.72-4.55h0c-.12-1.87-1.67-3.35-3.58-3.35s-3.59,1.61-3.59,3.59,1.48,3.46,3.36,3.58h0c2.93.19,4.83,1.36,4.54,5.73h0c0,.11-.02.23-.02.35,0,2.96,2.4,5.35,5.35,5.35s5.35-2.4,5.35-5.35-2.4-5.35-5.35-5.35Z"/>
        <path class="cls-2" d="m85.11,51.62c-8.99-.09-15.52-2.14-19.47-6.08l-.28-.28c-3.95-3.95-5.99-10.48-6.08-19.41.09-9.1,2.19-15.68,6.23-19.61,3.93-4.04,10.51-6.14,19.55-6.23,8.99.09,15.52,2.14,19.47,6.08l.28.28c3.95,3.95,5.99,10.48,6.08,19.41-.09,9.1-2.19,15.68-6.23,19.61-3.93,4.04-10.51,6.14-19.55,6.23Zm-.06-45.85c-7.41.08-12.62,1.59-15.44,4.51l-.07.07c-2.91,2.82-4.43,8.03-4.51,15.5.08,7.31,1.55,12.49,4.4,15.33l.28.28c2.84,2.84,8.02,4.32,15.39,4.4,7.41-.08,12.62-1.59,15.44-4.51l.07-.07c2.91-2.82,4.43-8.03,4.51-15.5-.08-7.31-1.55-12.49-4.39-15.33l-.29-.29c-2.84-2.84-8.02-4.32-15.39-4.4Z"/>
      </g>
    </g>
  </g>
</svg>